<mxfile host="drawio-plugin" modified="2022-05-12T14:17:19.485Z" agent="5.0 (Macintosh; Intel Mac OS X 12_3_1) AppleWebKit/537.36 (KHTML, like Gecko) Chrome/89.0.4389.114 Safari/537.36" etag="Zh2w4bOU9dWZ8ibCJeEN" version="15.5.4" type="embed"><diagram name="Page-1" id="74e2e168-ea6b-b213-b513-2b3c1d86103e"><mxGraphModel dx="1408" dy="752" grid="1" gridSize="10" guides="1" tooltips="1" connect="1" arrows="1" fold="1" page="1" pageScale="1" pageWidth="1100" pageHeight="850" background="none" math="0" shadow="0"><root><mxCell id="0"/><mxCell id="1" parent="0"/><mxCell id="77e6c97f196da883-1" value="User Registration" style="swimlane;html=1;childLayout=stackLayout;startSize=20;rounded=0;shadow=0;labelBackgroundColor=none;strokeWidth=1;fontFamily=Verdana;fontSize=8;align=center;" parent="1" vertex="1"><mxGeometry x="70" y="40" width="320" height="520" as="geometry"/></mxCell><mxCell id="77e6c97f196da883-2" value="Account Owner" style="swimlane;html=1;startSize=20;" parent="77e6c97f196da883-1" vertex="1"><mxGeometry y="20" width="160" height="500" as="geometry"/></mxCell><mxCell id="jRVLpVxCV-eyJM9b5TYF-1" value="Personal Information + username + password" style="shape=parallelogram;perimeter=parallelogramPerimeter;whiteSpace=wrap;html=1;fixedSize=1;" parent="77e6c97f196da883-2" vertex="1"><mxGeometry x="20" y="40" width="120" height="60" as="geometry"/></mxCell><mxCell id="77e6c97f196da883-3" value="System" style="swimlane;html=1;startSize=20;" parent="77e6c97f196da883-1" vertex="1"><mxGeometry x="160" y="20" width="160" height="500" as="geometry"/></mxCell><mxCell id="Oynw-8cb5iL78lc1ObSk-2" value="Hash Password" style="rounded=0;whiteSpace=wrap;html=1;" parent="77e6c97f196da883-3" vertex="1"><mxGeometry x="20" y="130" width="120" height="60" as="geometry"/></mxCell><mxCell id="Oynw-8cb5iL78lc1ObSk-3" value="Generates backup key" style="whiteSpace=wrap;html=1;rounded=0;" parent="77e6c97f196da883-3" vertex="1"><mxGeometry x="20" y="220" width="120" height="60" as="geometry"/></mxCell><mxCell id="Oynw-8cb5iL78lc1ObSk-4" value="" style="edgeStyle=orthogonalEdgeStyle;rounded=0;orthogonalLoop=1;jettySize=auto;html=1;" parent="77e6c97f196da883-3" source="Oynw-8cb5iL78lc1ObSk-2" target="Oynw-8cb5iL78lc1ObSk-3" edge="1"><mxGeometry relative="1" as="geometry"/></mxCell><mxCell id="Oynw-8cb5iL78lc1ObSk-5" value="Store user data" style="whiteSpace=wrap;html=1;rounded=0;" parent="77e6c97f196da883-3" vertex="1"><mxGeometry x="20" y="320" width="120" height="60" as="geometry"/></mxCell><mxCell id="Oynw-8cb5iL78lc1ObSk-7" value="" style="edgeStyle=orthogonalEdgeStyle;rounded=0;orthogonalLoop=1;jettySize=auto;html=1;" parent="77e6c97f196da883-3" source="Oynw-8cb5iL78lc1ObSk-3" target="Oynw-8cb5iL78lc1ObSk-5" edge="1"><mxGeometry relative="1" as="geometry"/></mxCell><mxCell id="Oynw-8cb5iL78lc1ObSk-19" style="edgeStyle=orthogonalEdgeStyle;rounded=0;orthogonalLoop=1;jettySize=auto;html=1;exitX=0.5;exitY=1;exitDx=0;exitDy=0;entryX=0.5;entryY=0;entryDx=0;entryDy=0;" parent="77e6c97f196da883-3" source="Oynw-8cb5iL78lc1ObSk-15" target="Oynw-8cb5iL78lc1ObSk-2" edge="1"><mxGeometry relative="1" as="geometry"/></mxCell><mxCell id="Oynw-8cb5iL78lc1ObSk-15" value="Validates that the username is unique" style="rounded=0;whiteSpace=wrap;html=1;" parent="77e6c97f196da883-3" vertex="1"><mxGeometry x="20" y="40" width="120" height="60" as="geometry"/></mxCell><mxCell id="Oynw-8cb5iL78lc1ObSk-6" value="Return backup key" style="shape=parallelogram;perimeter=parallelogramPerimeter;whiteSpace=wrap;html=1;fixedSize=1;" parent="77e6c97f196da883-3" vertex="1"><mxGeometry x="20" y="420" width="120" height="60" as="geometry"/></mxCell><mxCell id="Oynw-8cb5iL78lc1ObSk-8" value="" style="edgeStyle=orthogonalEdgeStyle;rounded=0;orthogonalLoop=1;jettySize=auto;html=1;" parent="77e6c97f196da883-3" source="Oynw-8cb5iL78lc1ObSk-5" target="Oynw-8cb5iL78lc1ObSk-6" edge="1"><mxGeometry relative="1" as="geometry"/></mxCell><mxCell id="jRVLpVxCV-eyJM9b5TYF-10" value="" style="edgeStyle=orthogonalEdgeStyle;rounded=0;orthogonalLoop=1;jettySize=auto;html=1;entryX=0;entryY=0.5;entryDx=0;entryDy=0;" parent="77e6c97f196da883-1" source="jRVLpVxCV-eyJM9b5TYF-1" target="Oynw-8cb5iL78lc1ObSk-15" edge="1"><mxGeometry relative="1" as="geometry"><mxPoint x="150" y="90" as="targetPoint"/></mxGeometry></mxCell><mxCell id="jRVLpVxCV-eyJM9b5TYF-3" value="User Heirs Creation" style="swimlane;html=1;childLayout=stackLayout;startSize=20;rounded=0;shadow=0;labelBackgroundColor=none;strokeWidth=1;fontFamily=Verdana;fontSize=8;align=center;" parent="1" vertex="1"><mxGeometry x="410" y="40" width="320" height="140" as="geometry"/></mxCell><mxCell id="jRVLpVxCV-eyJM9b5TYF-4" value="Account Owner" style="swimlane;html=1;startSize=20;" parent="jRVLpVxCV-eyJM9b5TYF-3" vertex="1"><mxGeometry y="20" width="160" height="120" as="geometry"/></mxCell><mxCell id="jRVLpVxCV-eyJM9b5TYF-5" value="Heir Personal Information + Email" style="shape=parallelogram;perimeter=parallelogramPerimeter;whiteSpace=wrap;html=1;fixedSize=1;" parent="jRVLpVxCV-eyJM9b5TYF-4" vertex="1"><mxGeometry x="20" y="40" width="120" height="60" as="geometry"/></mxCell><mxCell id="jRVLpVxCV-eyJM9b5TYF-6" value="System" style="swimlane;html=1;startSize=20;" parent="jRVLpVxCV-eyJM9b5TYF-3" vertex="1"><mxGeometry x="160" y="20" width="160" height="120" as="geometry"/></mxCell><mxCell id="jRVLpVxCV-eyJM9b5TYF-11" value="Stores personal information" style="rounded=0;whiteSpace=wrap;html=1;" parent="jRVLpVxCV-eyJM9b5TYF-6" vertex="1"><mxGeometry x="20" y="40" width="120" height="60" as="geometry"/></mxCell><mxCell id="jRVLpVxCV-eyJM9b5TYF-12" value="" style="edgeStyle=orthogonalEdgeStyle;rounded=0;orthogonalLoop=1;jettySize=auto;html=1;" parent="jRVLpVxCV-eyJM9b5TYF-3" source="jRVLpVxCV-eyJM9b5TYF-5" target="jRVLpVxCV-eyJM9b5TYF-11" edge="1"><mxGeometry relative="1" as="geometry"/></mxCell><mxCell id="Oynw-8cb5iL78lc1ObSk-9" value="Property Creation" style="swimlane;html=1;childLayout=stackLayout;startSize=20;rounded=0;shadow=0;labelBackgroundColor=none;strokeWidth=1;fontFamily=Verdana;fontSize=8;align=center;" parent="1" vertex="1"><mxGeometry x="750" y="40" width="320" height="420" as="geometry"/></mxCell><mxCell id="Oynw-8cb5iL78lc1ObSk-10" value="Account Owner" style="swimlane;html=1;startSize=20;" parent="Oynw-8cb5iL78lc1ObSk-9" vertex="1"><mxGeometry y="20" width="160" height="400" as="geometry"/></mxCell><mxCell id="Oynw-8cb5iL78lc1ObSk-11" value="Property information and documents related + password to encrypt the data" style="shape=parallelogram;perimeter=parallelogramPerimeter;whiteSpace=wrap;html=1;fixedSize=1;" parent="Oynw-8cb5iL78lc1ObSk-10" vertex="1"><mxGeometry x="20" y="40" width="120" height="60" as="geometry"/></mxCell><mxCell id="Oynw-8cb5iL78lc1ObSk-12" value="System" style="swimlane;html=1;startSize=20;" parent="Oynw-8cb5iL78lc1ObSk-9" vertex="1"><mxGeometry x="160" y="20" width="160" height="400" as="geometry"/></mxCell><mxCell id="Oynw-8cb5iL78lc1ObSk-13" value="Validate user password" style="rounded=0;whiteSpace=wrap;html=1;" parent="Oynw-8cb5iL78lc1ObSk-12" vertex="1"><mxGeometry x="20" y="40" width="120" height="60" as="geometry"/></mxCell><mxCell id="Oynw-8cb5iL78lc1ObSk-36" value="Store data of the heirs related with a particular property" style="rounded=0;whiteSpace=wrap;html=1;" parent="Oynw-8cb5iL78lc1ObSk-12" vertex="1"><mxGeometry x="20" y="320" width="120" height="60" as="geometry"/></mxCell><mxCell id="Oynw-8cb5iL78lc1ObSk-32" value="" style="edgeStyle=orthogonalEdgeStyle;rounded=0;orthogonalLoop=1;jettySize=auto;html=1;" parent="Oynw-8cb5iL78lc1ObSk-9" source="Oynw-8cb5iL78lc1ObSk-11" target="Oynw-8cb5iL78lc1ObSk-13" edge="1"><mxGeometry relative="1" as="geometry"/></mxCell><mxCell id="Oynw-8cb5iL78lc1ObSk-26" value="" style="edgeStyle=orthogonalEdgeStyle;rounded=0;orthogonalLoop=1;jettySize=auto;html=1;" parent="1" source="Oynw-8cb5iL78lc1ObSk-22" target="Oynw-8cb5iL78lc1ObSk-24" edge="1"><mxGeometry relative="1" as="geometry"/></mxCell><mxCell id="Oynw-8cb5iL78lc1ObSk-22" value="Encrypt property sensible data + documents content using the password" style="whiteSpace=wrap;html=1;rounded=0;" parent="1" vertex="1"><mxGeometry x="930" y="190" width="120" height="60" as="geometry"/></mxCell><mxCell id="Oynw-8cb5iL78lc1ObSk-23" value="" style="edgeStyle=orthogonalEdgeStyle;rounded=0;orthogonalLoop=1;jettySize=auto;html=1;" parent="1" source="Oynw-8cb5iL78lc1ObSk-13" target="Oynw-8cb5iL78lc1ObSk-22" edge="1"><mxGeometry relative="1" as="geometry"/></mxCell><mxCell id="Oynw-8cb5iL78lc1ObSk-24" value="Store property and documents" style="rounded=0;whiteSpace=wrap;html=1;" parent="1" vertex="1"><mxGeometry x="930" y="280" width="120" height="60" as="geometry"/></mxCell><mxCell id="Oynw-8cb5iL78lc1ObSk-37" value="" style="edgeStyle=orthogonalEdgeStyle;rounded=0;orthogonalLoop=1;jettySize=auto;html=1;" parent="1" source="Oynw-8cb5iL78lc1ObSk-33" target="Oynw-8cb5iL78lc1ObSk-36" edge="1"><mxGeometry relative="1" as="geometry"/></mxCell><mxCell id="Oynw-8cb5iL78lc1ObSk-33" value="Property Heirs" style="shape=parallelogram;perimeter=parallelogramPerimeter;whiteSpace=wrap;html=1;fixedSize=1;" parent="1" vertex="1"><mxGeometry x="770" y="380" width="120" height="60" as="geometry"/></mxCell><mxCell id="Oynw-8cb5iL78lc1ObSk-38" value="Testament Release" style="swimlane;html=1;childLayout=stackLayout;startSize=20;rounded=0;shadow=0;labelBackgroundColor=none;strokeWidth=1;fontFamily=Verdana;fontSize=8;align=center;" parent="1" vertex="1"><mxGeometry x="1100" y="40" width="320" height="720" as="geometry"/></mxCell><mxCell id="Oynw-8cb5iL78lc1ObSk-39" value="Account Owner" style="swimlane;html=1;startSize=20;" parent="Oynw-8cb5iL78lc1ObSk-38" vertex="1"><mxGeometry y="20" width="160" height="700" as="geometry"/></mxCell><mxCell id="Oynw-8cb5iL78lc1ObSk-40" value="Password of the user to validate" style="shape=parallelogram;perimeter=parallelogramPerimeter;whiteSpace=wrap;html=1;fixedSize=1;" parent="Oynw-8cb5iL78lc1ObSk-39" vertex="1"><mxGeometry x="20" y="40" width="120" height="60" as="geometry"/></mxCell><mxCell id="Oynw-8cb5iL78lc1ObSk-41" value="System" style="swimlane;html=1;startSize=20;fillColor=none;" parent="Oynw-8cb5iL78lc1ObSk-38" vertex="1"><mxGeometry x="160" y="20" width="160" height="700" as="geometry"/></mxCell><mxCell id="Oynw-8cb5iL78lc1ObSk-62" style="edgeStyle=orthogonalEdgeStyle;rounded=0;orthogonalLoop=1;jettySize=auto;html=1;" parent="Oynw-8cb5iL78lc1ObSk-41" source="Oynw-8cb5iL78lc1ObSk-42" target="Oynw-8cb5iL78lc1ObSk-43" edge="1"><mxGeometry relative="1" as="geometry"/></mxCell><mxCell id="Oynw-8cb5iL78lc1ObSk-42" value="Validate user password" style="rounded=0;whiteSpace=wrap;html=1;" parent="Oynw-8cb5iL78lc1ObSk-41" vertex="1"><mxGeometry x="20" y="40" width="120" height="60" as="geometry"/></mxCell><mxCell id="Oynw-8cb5iL78lc1ObSk-63" style="edgeStyle=orthogonalEdgeStyle;rounded=0;orthogonalLoop=1;jettySize=auto;html=1;" parent="Oynw-8cb5iL78lc1ObSk-41" source="Oynw-8cb5iL78lc1ObSk-43" target="Oynw-8cb5iL78lc1ObSk-45" edge="1"><mxGeometry relative="1" as="geometry"/></mxCell><mxCell id="Oynw-8cb5iL78lc1ObSk-43" value="Get all the properties that that are ready to be included in the testament decrypted" style="rounded=0;whiteSpace=wrap;html=1;fillColor=none;strokeColor=#FFFFFF;shadow=1;" parent="Oynw-8cb5iL78lc1ObSk-41" vertex="1"><mxGeometry x="20" y="130" width="120" height="60" as="geometry"/></mxCell><mxCell id="Oynw-8cb5iL78lc1ObSk-64" style="edgeStyle=orthogonalEdgeStyle;rounded=0;orthogonalLoop=1;jettySize=auto;html=1;" parent="Oynw-8cb5iL78lc1ObSk-41" source="Oynw-8cb5iL78lc1ObSk-45" target="Oynw-8cb5iL78lc1ObSk-48" edge="1"><mxGeometry relative="1" as="geometry"/></mxCell><mxCell id="Oynw-8cb5iL78lc1ObSk-45" value="Get all the heirs related with the properties" style="whiteSpace=wrap;html=1;rounded=0;" parent="Oynw-8cb5iL78lc1ObSk-41" vertex="1"><mxGeometry x="20" y="220" width="120" height="60" as="geometry"/></mxCell><mxCell id="Oynw-8cb5iL78lc1ObSk-48" value="Generate Unique Key to all the heirs that doesn't have a key generated" style="rounded=0;whiteSpace=wrap;html=1;" parent="Oynw-8cb5iL78lc1ObSk-41" vertex="1"><mxGeometry x="20" y="310" width="120" height="60" as="geometry"/></mxCell><mxCell id="Oynw-8cb5iL78lc1ObSk-44" value="" style="edgeStyle=orthogonalEdgeStyle;rounded=0;orthogonalLoop=1;jettySize=auto;html=1;" parent="Oynw-8cb5iL78lc1ObSk-38" source="Oynw-8cb5iL78lc1ObSk-40" target="Oynw-8cb5iL78lc1ObSk-42" edge="1"><mxGeometry relative="1" as="geometry"/></mxCell><mxCell id="Oynw-8cb5iL78lc1ObSk-66" style="edgeStyle=orthogonalEdgeStyle;rounded=0;orthogonalLoop=1;jettySize=auto;html=1;" parent="1" source="Oynw-8cb5iL78lc1ObSk-59" target="Oynw-8cb5iL78lc1ObSk-60" edge="1"><mxGeometry relative="1" as="geometry"/></mxCell><mxCell id="Oynw-8cb5iL78lc1ObSk-59" value="Send key to heirs via email" style="shape=parallelogram;perimeter=parallelogramPerimeter;whiteSpace=wrap;html=1;fixedSize=1;" parent="1" vertex="1"><mxGeometry x="1280" y="470" width="120" height="60" as="geometry"/></mxCell><mxCell id="Oynw-8cb5iL78lc1ObSk-67" style="edgeStyle=orthogonalEdgeStyle;rounded=0;orthogonalLoop=1;jettySize=auto;html=1;" parent="1" source="Oynw-8cb5iL78lc1ObSk-60" target="Oynw-8cb5iL78lc1ObSk-61" edge="1"><mxGeometry relative="1" as="geometry"/></mxCell><mxCell id="Oynw-8cb5iL78lc1ObSk-60" value="Create the combined key using the keys of all the heirs" style="rounded=0;whiteSpace=wrap;html=1;" parent="1" vertex="1"><mxGeometry x="1280" y="570" width="120" height="60" as="geometry"/></mxCell><mxCell id="Oynw-8cb5iL78lc1ObSk-61" value="Encrypt all the data related with the testament using the combined key" style="rounded=0;whiteSpace=wrap;html=1;" parent="1" vertex="1"><mxGeometry x="1280" y="670" width="120" height="60" as="geometry"/></mxCell><mxCell id="Oynw-8cb5iL78lc1ObSk-65" style="edgeStyle=orthogonalEdgeStyle;rounded=0;orthogonalLoop=1;jettySize=auto;html=1;" parent="1" source="Oynw-8cb5iL78lc1ObSk-48" target="Oynw-8cb5iL78lc1ObSk-59" edge="1"><mxGeometry relative="1" as="geometry"/></mxCell><mxCell id="Oynw-8cb5iL78lc1ObSk-71" value="" style="edgeStyle=orthogonalEdgeStyle;rounded=0;orthogonalLoop=1;jettySize=auto;html=1;" parent="1" source="Oynw-8cb5iL78lc1ObSk-68" target="Oynw-8cb5iL78lc1ObSk-70" edge="1"><mxGeometry relative="1" as="geometry"/></mxCell><mxCell id="Oynw-8cb5iL78lc1ObSk-68" value="Password" style="text;html=1;strokeColor=none;fillColor=none;align=center;verticalAlign=middle;whiteSpace=wrap;rounded=0;" parent="1" vertex="1"><mxGeometry x="690" y="1070" width="60" height="30" as="geometry"/></mxCell><mxCell id="Oynw-8cb5iL78lc1ObSk-77" value="" style="edgeStyle=orthogonalEdgeStyle;rounded=0;orthogonalLoop=1;jettySize=auto;html=1;" parent="1" source="Oynw-8cb5iL78lc1ObSk-70" target="Oynw-8cb5iL78lc1ObSk-76" edge="1"><mxGeometry relative="1" as="geometry"/></mxCell><mxCell id="Oynw-8cb5iL78lc1ObSk-70" value="keystreching" style="whiteSpace=wrap;html=1;" parent="1" vertex="1"><mxGeometry x="800" y="1055" width="120" height="60" as="geometry"/></mxCell><mxCell id="Oynw-8cb5iL78lc1ObSk-73" value="" style="edgeStyle=orthogonalEdgeStyle;rounded=0;orthogonalLoop=1;jettySize=auto;html=1;" parent="1" source="Oynw-8cb5iL78lc1ObSk-72" target="Oynw-8cb5iL78lc1ObSk-70" edge="1"><mxGeometry relative="1" as="geometry"/></mxCell><mxCell id="Oynw-8cb5iL78lc1ObSk-72" value="salt" style="text;html=1;strokeColor=none;fillColor=none;align=center;verticalAlign=middle;whiteSpace=wrap;rounded=0;" parent="1" vertex="1"><mxGeometry x="830" y="970" width="60" height="30" as="geometry"/></mxCell><mxCell id="Oynw-8cb5iL78lc1ObSk-79" value="" style="edgeStyle=orthogonalEdgeStyle;rounded=0;orthogonalLoop=1;jettySize=auto;html=1;" parent="1" source="Oynw-8cb5iL78lc1ObSk-76" target="Oynw-8cb5iL78lc1ObSk-78" edge="1"><mxGeometry relative="1" as="geometry"/></mxCell><mxCell id="Oynw-8cb5iL78lc1ObSk-81" value="" style="edgeStyle=orthogonalEdgeStyle;rounded=0;orthogonalLoop=1;jettySize=auto;html=1;" parent="1" source="Oynw-8cb5iL78lc1ObSk-76" target="Oynw-8cb5iL78lc1ObSk-80" edge="1"><mxGeometry relative="1" as="geometry"/></mxCell><mxCell id="Oynw-8cb5iL78lc1ObSk-76" value="digest password" style="text;html=1;strokeColor=none;fillColor=none;align=center;verticalAlign=middle;whiteSpace=wrap;rounded=0;" parent="1" vertex="1"><mxGeometry x="970" y="1070" width="60" height="30" as="geometry"/></mxCell><mxCell id="Oynw-8cb5iL78lc1ObSk-78" value="Backup Key / Key to encrypt data" style="text;html=1;strokeColor=none;fillColor=none;align=center;verticalAlign=middle;whiteSpace=wrap;rounded=0;" parent="1" vertex="1"><mxGeometry x="950" y="1180" width="100" height="30" as="geometry"/></mxCell><mxCell id="Oynw-8cb5iL78lc1ObSk-85" value="" style="edgeStyle=orthogonalEdgeStyle;rounded=0;orthogonalLoop=1;jettySize=auto;html=1;" parent="1" source="Oynw-8cb5iL78lc1ObSk-80" target="Oynw-8cb5iL78lc1ObSk-86" edge="1"><mxGeometry relative="1" as="geometry"><mxPoint x="1270" y="1085" as="targetPoint"/></mxGeometry></mxCell><mxCell id="Oynw-8cb5iL78lc1ObSk-80" value="keystreching" style="whiteSpace=wrap;html=1;" parent="1" vertex="1"><mxGeometry x="1100" y="1055" width="120" height="60" as="geometry"/></mxCell><mxCell id="Oynw-8cb5iL78lc1ObSk-83" value="" style="edgeStyle=orthogonalEdgeStyle;rounded=0;orthogonalLoop=1;jettySize=auto;html=1;" parent="1" source="Oynw-8cb5iL78lc1ObSk-82" target="Oynw-8cb5iL78lc1ObSk-80" edge="1"><mxGeometry relative="1" as="geometry"/></mxCell><mxCell id="Oynw-8cb5iL78lc1ObSk-82" value="pepper" style="text;html=1;strokeColor=none;fillColor=none;align=center;verticalAlign=middle;whiteSpace=wrap;rounded=0;" parent="1" vertex="1"><mxGeometry x="1130" y="970" width="60" height="30" as="geometry"/></mxCell><mxCell id="Oynw-8cb5iL78lc1ObSk-86" value="hashed password to store" style="text;html=1;strokeColor=none;fillColor=none;align=center;verticalAlign=middle;whiteSpace=wrap;rounded=0;" parent="1" vertex="1"><mxGeometry x="1270" y="1070" width="60" height="30" as="geometry"/></mxCell><mxCell id="0Q1bL1KmNA5wZksf4j8q-1" value="Pending to solve:&lt;br&gt;&lt;div&gt;&lt;span&gt;- Create a backup/recovery key&lt;/span&gt;&lt;/div&gt;&lt;div&gt;- How to generate the combine key&lt;/div&gt;&lt;div&gt;- How to encrypt the testament (two version or only one version that can be decrypted by the owner or an n number of heirs)&lt;/div&gt;" style="text;html=1;strokeColor=none;fillColor=#99CCFF;align=left;verticalAlign=middle;whiteSpace=wrap;rounded=0;" parent="1" vertex="1"><mxGeometry x="1460" y="40" width="370" height="110" as="geometry"/></mxCell></root></mxGraphModel></diagram></mxfile>